<?xml version="1.0" encoding="iso-8859-1"?>
<!-- Generator: Adobe Illustrator 19.0.0, SVG Export Plug-In . SVG Version: 6.00 Build 0)  -->
<svg version="1.1" id="Capa_1" xmlns="http://www.w3.org/2000/svg" xmlns:xlink="http://www.w3.org/1999/xlink" x="0px" y="0px"
	 viewBox="0 0 512 512" style="enable-background:new 0 0 512 512;" xml:space="preserve">
<rect style="fill:#748789;" width="512" height="512"/>
<rect x="31.493" y="31.493" style="fill:#E9EEF1;" width="449.024" height="449.024"/>
<g>
	<rect x="360.427" y="31.493" style="fill:#BBC1D0;" width="15.673" height="449.024"/>
	<rect x="248.163" y="31.493" style="fill:#BBC1D0;" width="15.673" height="449.024"/>
	<rect x="135.91" y="31.493" style="fill:#BBC1D0;" width="15.673" height="449.024"/>
	<rect x="31.493" y="135.91" style="fill:#BBC1D0;" width="449.024" height="15.673"/>
	<rect x="31.493" y="248.163" style="fill:#BBC1D0;" width="449.024" height="15.673"/>
	<rect x="31.493" y="360.417" style="fill:#BBC1D0;" width="449.024" height="15.673"/>
</g>
<polygon style="fill:#DC1100;" points="31.49,422.451 31.49,480.516 45.983,480.516 202.373,217.003 324.354,363.592 
	480.514,82.431 480.514,31.492 460.901,31.492 317.008,289.415 195.539,143.443 "/>
<path style="fill:#BBC1D0;" d="M23.652,23.655H488.35v464.697H23.652V23.655z M472.677,39.329H39.326v433.351h433.351V39.329
	H472.677z"/>
<g>
</g>
<g>
</g>
<g>
</g>
<g>
</g>
<g>
</g>
<g>
</g>
<g>
</g>
<g>
</g>
<g>
</g>
<g>
</g>
<g>
</g>
<g>
</g>
<g>
</g>
<g>
</g>
<g>
</g>
</svg>
