<svg height="512pt" viewBox="-34 0 511 512" width="512pt" xmlns="http://www.w3.org/2000/svg"><path d="m301.753906 271.480469h-3.863281v-225.863281c0-25.152344-20.460937-45.617188-45.617187-45.617188-11.757813 0-22.488282 4.472656-30.585938 11.804688-8.097656-7.332032-18.832031-11.804688-30.589844-11.804688-25.152344 0-45.617187 20.464844-45.617187 45.617188v225.863281h-3.859375c-4.972656 0-9.621094 2.460937-12.414063 6.570312-2.796875 4.113281-3.375 9.339844-1.546875 13.964844l22.96875 58.066406v56.328125c0 13.785156 6.226563 26.132813 16.011719 34.402344v16.28125c0 30.277344 24.628906 54.90625 54.90625 54.90625h.28125c30.273437 0 54.90625-24.628906 54.90625-54.90625v-16.28125c9.78125-8.269531 16.011719-20.617188 16.011719-34.402344v-56.328125l22.96875-58.066406c1.828125-4.625 1.25-9.851563-1.546875-13.964844-2.792969-4.109375-7.441407-6.570312-12.414063-6.570312zm-39.03125 134.929687c0 8.277344-6.734375 15.011719-15.015625 15.011719h-52.042969c-8.277343 0-15.011718-6.734375-15.011718-15.011719v-44.175781h82.070312zm-86.875-74.199218-12.144531-30.707032h115.96875l-12.144531 30.707032zm76.425782-302.1875c8.597656 0 15.59375 6.996093 15.59375 15.59375v225.863281h-31.152344v-225.863281c0-.140626-.007813-.273438-.011719-.414063.222656-8.402344 7.113281-15.179687 15.570313-15.179687zm-76.765626 15.59375c0-8.597657 6.992188-15.59375 15.589844-15.59375 8.457032 0 15.351563 6.777343 15.570313 15.179687 0 .140625-.007813.273437-.007813.414063v225.863281h-31.152344zm71.199219 411.476562c0 13.71875-11.160156 24.882812-24.878906 24.882812h-.28125c-13.71875 0-24.878906-11.164062-24.878906-24.882812v-5.644531h50.039062zm0 0"/><path d="m75.1875 157.773438c0-8.292969-6.722656-15.015626-15.015625-15.015626h-44.660156c-8.289063 0-15.011719 6.722657-15.011719 15.015626 0 8.289062 6.722656 15.011718 15.011719 15.011718h44.660156c8.292969 0 15.015625-6.722656 15.015625-15.011718zm0 0"/><path d="m78.730469 77.90625c2.933593 2.933594 6.773437 4.398438 10.617187 4.398438 3.839844 0 7.683594-1.464844 10.613282-4.398438 5.863281-5.863281 5.863281-15.367188 0-21.230469l-30.03125-30.035156c-5.863282-5.859375-15.367188-5.859375-21.230469 0-5.863281 5.863281-5.863281 15.371094 0 21.234375zm0 0"/><path d="m79.007812 238.429688-30.433593 30.433593c-5.863281 5.863281-5.863281 15.367188 0 21.230469 2.929687 2.933594 6.773437 4.398438 10.613281 4.398438s7.683594-1.464844 10.613281-4.398438l30.4375-30.433594c5.863281-5.863281 5.863281-15.367187 0-21.230468-5.863281-5.863282-15.367187-5.863282-21.230469 0zm0 0"/><path d="m427.859375 143.953125h-44.660156c-8.292969 0-15.011719 6.722656-15.011719 15.011719 0 8.292968 6.71875 15.011718 15.011719 15.011718h44.660156c8.292969 0 15.011719-6.71875 15.011719-15.011718 0-8.289063-6.71875-15.011719-15.011719-15.011719zm0 0"/><path d="m364.640625 238.828125c-5.863281-5.859375-15.367187-5.859375-21.230469 0-5.863281 5.863281-5.863281 15.371094 0 21.234375l30.035156 30.03125c2.929688 2.933594 6.773438 4.398438 10.613282 4.398438s7.683594-1.464844 10.617187-4.398438c5.863281-5.859375 5.863281-15.367188 0-21.230469zm0 0"/><path d="m353.75 82.707031c3.84375 0 7.683594-1.464843 10.617188-4.398437l30.433593-30.433594c5.863281-5.863281 5.863281-15.371094 0-21.234375-5.863281-5.859375-15.367187-5.859375-21.230469 0l-30.433593 30.4375c-5.863281 5.863281-5.863281 15.367187 0 21.230469 2.929687 2.933594 6.769531 4.398437 10.613281 4.398437zm0 0"/></svg>